<?xml version="1.0" encoding="UTF-8" standalone="no"?>
<svg
   xmlns:dc="http://purl.org/dc/elements/1.1/"
   xmlns:cc="http://creativecommons.org/ns#"
   xmlns:rdf="http://www.w3.org/1999/02/22-rdf-syntax-ns#"
   xmlns:svg="http://www.w3.org/2000/svg"
   xmlns="http://www.w3.org/2000/svg"
   xmlns:sodipodi="http://sodipodi.sourceforge.net/DTD/sodipodi-0.dtd"
   xmlns:inkscape="http://www.inkscape.org/namespaces/inkscape"
   version="1.1"
   id="svg2"
   xml:space="preserve"
   width="385.33334"
   height="243.69333"
   viewBox="0 0 385.33334 243.69333"
   sodipodi:docname="codepilots_logo.eps"><metadata
     id="metadata8"><rdf:RDF><cc:Work
         rdf:about=""><dc:format>image/svg+xml</dc:format><dc:type
           rdf:resource="http://purl.org/dc/dcmitype/StillImage" /></cc:Work></rdf:RDF></metadata><defs
     id="defs6" /><sodipodi:namedview
     pagecolor="#ffffff"
     bordercolor="#666666"
     borderopacity="1"
     objecttolerance="10"
     gridtolerance="10"
     guidetolerance="10"
     inkscape:pageopacity="0"
     inkscape:pageshadow="2"
     inkscape:window-width="640"
     inkscape:window-height="480"
     id="namedview4" /><g
     id="g10"
     inkscape:groupmode="layer"
     inkscape:label="ink_ext_XXXXXX"
     transform="matrix(1.3333333,0,0,-1.3333333,0,243.69333)"><g
       id="g12"
       transform="scale(0.1)"><path
         d="m 1527.42,1011.94 c 40,-76.002 -23.9,-393.999 -92.6,-463.401 19.15,156.582 49.97,311.512 92.2,463.501 z m 1020,-353.799 c -30,85.097 -69.1,167.5 -56.7,262.496 4.8,36.902 -19.4,56.902 -62.7,56.902 -47.7,0 -45.3,3.399 -53.7,-47.902 -0.81,-4.93 -1.31,-9.907 -1.5,-14.899 -2.93,-52.554 -16.72,-103.937 -40.5,-150.898 -4.9,-10 -10,-20.602 -16.8,-35.699 33,17.8 63.7,29.3 76.7,62.5 11.4,-34.602 22.3,-68.403 33.7,-102 13.5,-40 28,-78.903 41.2,-118.7 8.4,-25.203 4.8,-50 -15.4,-67.3 -18.25,-14.7 -38.75,-26.379 -60.7,-34.602 -18.6,-7.301 -30,0.602 -34.7,20 -10.98,39.16 -3.63,81.191 20,114.301 20,28.601 20,33.398 -13,50 -6.75,3.262 -13.73,6 -20.9,8.199 -38,12 -59.3,2.402 -74.4,-34.598 -5.8,-14.3 -6.8,-31 -14.1,-44.402 -24.14,-47.5 -56.31,-90.469 -95.1,-127 -9.97,-7.359 -20.43,-14.039 -31.3,-20 -2.4,26.602 -6.1,47.199 -5.9,67.801 1.2,128.398 22,254.699 43.4,380.898 2.2,6.418 7.15,11.516 13.5,13.899 17.7,6 36.4,9.101 54.2,15.101 34.78,9.774 60.91,38.551 67.3,74.102 4,19.3 0,22 -18.8,17.1 -31.8,-8.202 -63.9,-15.502 -97.3,-23.502 1.2,6.8 2.2,13.3 3.4,20 4.1,22.102 8.9,44.102 12,66.302 3.89,18.27 -2.43,37.21 -16.5,49.5 -28.6,23.7 -61.6,26.6 -95.9,20 l -22.8,-181.302 c -27.3,-8.801 -54.6,-12.801 -76.6,-25.801 -25.6,-15.098 -21.6,-46.098 -26.9,-75.399 l 93,15.602 c -6.5,-69.102 -12.7,-136.102 -19.3,-203.102 -0.76,-3.976 -2.97,-7.539 -6.2,-10 -24.08,-18.039 -57.94,-14.738 -78.1,7.602 -11.1,11.801 -20,26 -31.8,36.699 -6.61,5.582 -15.51,7.633 -23.9,5.5 -20.68,-13.617 -40.39,-28.66 -59,-45 -8.35,-7.301 -9.86,-19.719 -3.5,-28.801 6.25,-12.179 9.67,-25.617 10,-39.297 0.57,-78.55 -20.5,-155.742 -60.9,-223.101 -8.8,-12.781 -19.6,-24.059 -32,-33.399 -12.5,-10 -24.6,-5.703 -30,7.899 -7.33,15.172 -12.26,31.398 -14.6,48.101 -8.3,91.2 6.5,178.297 54.4,257.598 37.3,61.699 88.5,103.102 164.9,103.602 2.83,0.558 5.54,1.609 8,3.097 -16.7,40 -81.6,74.399 -123.3,66.203 -55,-10.8 -94.9,-42.902 -124.8,-88.703 -51.1,-78.297 -70,-166 -73.5,-258 0.54,-16.066 -4.2,-31.879 -13.5,-45 -35.3,-46.898 -68.9,-95 -105.5,-140.699 -9.5,-11.801 -27.6,-16.598 -41.8,-24.598 -7.5,15.797 -18.6,30.899 -22,47.5 -11.7,57.598 -4.2,115.7 1.5,173.5 1.39,5.079 4.2,9.661 8.1,13.2 19.3,21.8 43.5,40.597 57.6,65.3 75.3,131.797 109.3,275.598 113.5,426.399 0.7,24.7 -2.1,53.9 -14.8,73.6 -23,35.5 -60.9,54.6 -103.9,60 -16.64,3.93 -33.49,-5.68 -38.6,-22 -10,-26.9 -22.2,-53.2 -30,-80.7 -57.2,-201.201 -79.1,-407.502 -88.2,-615.701 0.13,-9.238 -1.78,-18.391 -5.6,-26.801 -18.4,-33.398 -37,-66.797 -57.7,-98.699 -13.61,-20.199 -29.04,-39.117 -46.1,-56.5 -17,-17.898 -26.6,-15.199 -30,8.602 -4.02,21.468 -4.69,43.429 -2,65.097 13.8,80 30,160.5 45.7,240.703 3.6,19 7.8,37.899 10,57.098 2.2,19.199 -3.8,33.699 -21.4,40 -19.87,6.32 -40.24,10.941 -60.9,13.801 -15.8,2.5 -25.4,-5.199 -28,-22.102 -12.5,-81.297 -28.1,-162.297 -37.5,-244 -3.9,-44.117 -3.26,-88.519 1.9,-132.5 4.3,-46.097 31.7,-76.398 77.2,-88.5 12.6,-3.398 25.6,-5.199 38.5,-7.597 18.27,-4.231 37.29,2.949 48.2,18.199 12.04,15.148 22.59,31.43 31.5,48.601 14.1,28.797 25.9,58.797 38.7,88.399 0.59,-0.41 1.09,-0.918 1.5,-1.5 1.01,-2.949 1.84,-5.961 2.5,-9 11,-62.102 50.5,-92.5 110.6,-102.602 32.8,-5.5 60.9,1 80,27.602 22.34,31.531 43,64.199 61.9,97.898 10.01,19.813 18.89,40.184 26.6,61 1.19,-2.207 2.26,-4.476 3.2,-6.797 18.9,-61.101 92,-109 155.6,-101.5 6.15,1.02 12.09,3.008 17.6,5.899 39.1,18.601 63.8,51.5 84.9,87.398 33.4,58.871 55.04,123.672 63.7,190.801 0.3,5.762 2.9,11.16 7.2,15 26.4,10.801 53.3,20 80,30 0,0 0,-3.898 0,-7.598 1,-46.8 0.7,-93.601 3.6,-140 1.7,-28.3 11.6,-55.8 40.8,-66.8 80,-30 105.1,-32.801 151.8,45.699 13,21.801 23,45.5 33.6,66.699 9.57,-12.57 20.24,-24.25 31.9,-34.898 33.91,-27.063 74.93,-43.731 118.1,-48 74,-6.602 149.3,58.398 155.6,132.199 3.5,37.199 -6.2,71.898 -18.2,106.301"
         style="fill:#040606;fill-opacity:1;fill-rule:nonzero;stroke:none"
         id="path14" /><path
         d="m 1053.22,836.438 c -25.3,13.699 -50,28.699 -75.095,42.402 -68.598,38.238 -149.707,47.215 -225,24.898 C 610.824,864.34 496.422,785.539 415.824,661.141 378.324,603.238 353.621,539.84 354.223,469.34 c 0,-25.801 3,-53.199 25.5,-70 30.5,-22.5 66.199,-25.199 103.199,-20 -16.699,99.199 -14.699,136.101 18.301,202.398 72.398,145.801 195.8,222.301 351.601,252 35.211,6.606 71.531,4.094 105.5,-7.297 17.86,-4.781 31.465,-19.269 35.098,-37.402 10.498,-43.289 9.808,-88.551 -2,-131.5 -26.453,-101.32 -85.051,-191.32 -167,-256.5 -33.301,-27.301 -71.297,-49 -107.098,-73.199 l -5,4.898 c 9.133,57.203 18.367,114.371 27.699,171.5 7,44.403 15.098,88.602 20.602,133.102 4.199,34.801 -10,54.699 -43.203,64.301 -15.199,3.148 -30.606,5.23 -46.098,6.199 -15.5,2.101 -22.402,-4.102 -24.101,-20 -12.301,-114.102 -25.399,-228.102 -38.102,-342.199 -1.898,-17 -3.199,-34.2 -4.797,-51 l -56.301,-8.2 -3.101,-6.203 52.801,-53.699 c 1.5,-50.699 1.699,-107.398 5.402,-163.8984 2.898,-43.8008 46.797,-71.60154 91.797,-59.99997 0,4.59765 0,9.39847 0,14.30077 1.402,61.6992 4.101,123.3986 3.601,185.0976 0,33.102 10,54.402 44.7,59 3.019,0.801 5.914,2.012 8.601,3.602 115.215,50.531 213.235,133.507 282.096,238.8 43.9,66.598 74.1,138.797 77.1,220 1.7,48.399 -12.6,88.399 -57.8,112.997"
         style="fill:#040606;fill-opacity:1;fill-rule:nonzero;stroke:none"
         id="path16" /><path
         d="m 1194.32,912.738 c -26.5,-6.601 -34.8,-20 -30,-46.601 5.6,-35.098 12,-69.996 17.2,-105.297 2.2,-15.199 8,-21.899 21.8,-15.801 48.8,11.801 96.1,84.199 85.6,131.899 -3.21,11.082 -10.31,20.636 -20,26.902 -22.51,13.324 -49.59,16.555 -74.6,8.898"
         style="fill:#040606;fill-opacity:1;fill-rule:nonzero;stroke:none"
         id="path18" /><path
         d="m 0.0234375,1496.74 c -0.2421875,44.05 8.0781225,87.72 24.4999625,128.6 15.5,39.1 38.3829,74.85 67.3985,105.3 29.6991,30.55 65.3751,54.65 104.8011,70.8 42.218,17.61 87.562,26.48 133.3,26.1 48.184,1.21 96.102,-7.47 140.801,-25.5 40.442,-17.88 77.41,-42.76 109.199,-73.5 l -71.8,-83.2 c -25.211,23.76 -53.785,43.67 -84.801,59.1 -29.563,13.95 -61.91,21 -94.598,20.6 -38.445,0.5 -76.219,-10.09 -108.801,-30.5 -32.246,-20.1 -58.386,-48.63 -75.601,-82.5 -18.211,-35.64 -27.477,-75.18 -27,-115.2 -1.5,-59.61 19.98,-117.5 60,-161.7 37.988,-43.33 93.191,-67.64 150.801,-66.4 33.492,-0.72 66.695,6.33 97,20.6 31.808,16.55 61.05,37.64 86.8,62.6 l 72.301,-73.4 c -21.422,-22.4 -45.113,-42.51 -70.703,-60 -25.625,-16.67 -53.601,-29.41 -83,-37.8 -34.406,-9.93 -70.086,-14.78 -105.898,-14.4 -58.133,-0.71 -115.379,14.29 -165.7,43.4 -49.125,28.4 -89.5464,69.69 -116.9019,119.4 -28.2734,51.29 -42.77735,109.03 -42.0976625,167.6"
         style="fill:#040606;fill-opacity:1;fill-rule:nonzero;stroke:none"
         id="path20" /><path
         d="m 864.922,1496.74 c -0.414,-39.78 9,-79.04 27.402,-114.3 36.813,-70.74 110.266,-114.77 189.996,-113.9 79.22,-0.88 152.19,42.89 188.7,113.2 18.36,35.52 27.7,75.01 27.2,115 0.24,39.85 -9.45,79.13 -28.2,114.3 -17.93,34.21 -44.82,62.9 -77.8,83 -99.76,61.92 -230.829,31.23 -292.743,-68.53 -2.789,-4.49 -5.411,-9.08 -7.856,-13.77 -18.16,-35.58 -27.363,-75.06 -26.797,-115 z m -117.797,0 c -0.145,86.81 33.453,170.29 93.699,232.8 30.367,30.73 66.625,55.01 106.598,71.4 86.368,35.11 183.028,35.11 269.398,0 39.74,-16.17 75.77,-40.26 105.9,-70.8 29.36,-30.34 52.52,-66.11 68.2,-105.3 16.58,-40.8 25.01,-84.46 24.8,-128.5 0.13,-86.84 -33.47,-170.34 -93.7,-232.9 -30.43,-30.72 -66.76,-54.97 -106.8,-71.3 -42.85,-17.7 -88.83,-26.58 -135.2,-26.1 -60.52,-0.89 -120.149,14.59 -172.598,44.8 -49.77,28.42 -90.817,69.92 -118.699,120 -27.981,50.77 -42.313,107.93 -41.598,165.9"
         style="fill:#040606;fill-opacity:1;fill-rule:nonzero;stroke:none"
         id="path22" /><path
         d="m 1736.82,1280.14 h 126.2 c 66.67,0 120.34,20.2 161,60.6 40.67,40.4 61.07,92.67 61.2,156.8 0,63.26 -20.43,115.26 -61.3,156 -40.86,40.73 -94.46,61.07 -160.8,61 h -126.3 v -434.8 z m -112.4,-102.6 v 640 h 238.6 c 47.06,0.41 93.78,-7.9 137.8,-24.5 40.13,-14.86 76.83,-37.68 107.9,-67.1 29.72,-28.81 53.23,-63.38 69.1,-101.6 16.88,-40.13 25.42,-83.27 25.1,-126.8 0.28,-43.23 -8.22,-86.06 -25,-125.9 -15.93,-38.25 -39.43,-72.87 -69.1,-101.8 -31.04,-29.57 -67.74,-52.57 -107.9,-67.6 -44.02,-16.77 -90.79,-25.15 -137.9,-24.7 h -238.6"
         style="fill:#040606;fill-opacity:1;fill-rule:nonzero;stroke:none"
         id="path24" /><path
         d="m 2411.62,1177.54 v 640 h 474.2 v -100 h -361.8 v -168.8 h 320.7 v -99.5 h -320.7 v -172.6 h 366 v -99.1 h -478.4"
         style="fill:#040606;fill-opacity:1;fill-rule:nonzero;stroke:none"
         id="path26" /></g></g></svg>
