<svg width="158" height="29" viewBox="0 0 158 29" fill="none" xmlns="http://www.w3.org/2000/svg">
<path d="M58.5415 22.9571L60.0081 26.8112C59.4728 27.2083 58.815 27.5061 58.0353 27.7046C57.2553 27.9032 56.4347 28.0025 55.5734 28.0025C53.3384 28.0025 51.61 27.4302 50.3878 26.2856C49.1656 25.1411 48.5547 23.4593 48.5547 21.2403V13.1378H45.6562V8.87355H48.5547V4.70274H54.0022V8.87355H58.6812V13.1378H54.0022V21.1702C54.0022 21.9644 54.2056 22.5775 54.6131 23.0097C55.0206 23.4418 55.5969 23.6578 56.3416 23.6578C57.2031 23.6578 57.9362 23.4243 58.5415 22.9571Z" fill="#04080E"/>
<path d="M79.3125 18.3657C79.3125 18.4358 79.2796 18.9262 79.2137 19.8371H65.7993C66.0411 21.0049 66.6124 21.9275 67.5133 22.6048C68.414 23.2821 69.5346 23.6208 70.8749 23.6208C71.7977 23.6208 72.6165 23.4748 73.3305 23.1828C74.0446 22.8909 74.7093 22.4296 75.3243 21.799L78.0599 24.952C76.3902 26.984 73.9512 28 70.743 28C68.7436 28 66.9749 27.5854 65.4367 26.7563C63.8986 25.9272 62.7124 24.7769 61.8774 23.3055C61.0423 21.834 60.6248 20.1641 60.6248 18.2956C60.6248 16.4505 61.0367 14.7864 61.8608 13.3033C62.6849 11.8202 63.8164 10.6641 65.2555 9.83497C66.6949 9.00585 68.3043 8.59127 70.084 8.59127C71.8199 8.59127 73.3909 8.98832 74.7971 9.78241C76.2034 10.5765 77.3074 11.7151 78.1093 13.1982C78.9115 14.6813 79.3125 16.4038 79.3125 18.3657ZM70.1171 12.7253C68.9524 12.7253 67.9746 13.0756 67.1836 13.7763C66.3927 14.4769 65.9093 15.4345 65.7333 16.6491H74.4674C74.2918 15.4579 73.8084 14.5061 73.0174 13.7938C72.2265 13.0814 71.2596 12.7253 70.1171 12.7253Z" fill="#04080E"/>
<path d="M92.6504 9.0324C94.9783 9.0324 96.8583 9.73312 98.2898 11.1346C99.7217 12.5361 100.437 14.615 100.437 17.3712V28.1626H94.9898V18.2121C94.9898 16.7172 94.6642 15.6018 94.0123 14.8661C93.3604 14.1303 92.4176 13.7624 91.1836 13.7624C89.8101 13.7624 88.7161 14.1887 87.9014 15.0412C87.0864 15.8938 86.6792 17.161 86.6792 18.8428V28.1626H81.2317V9.0361H86.4345V11.52C87.1564 10.7259 88.0526 10.1127 89.1236 9.68057C90.1942 9.24847 91.3698 9.0324 92.6504 9.0324Z" fill="#04080E"/>
<path d="M117.312 1.72456H122.759V27.9844H117.556V25.5498C116.206 27.1848 114.25 28.0024 111.689 28.0024C109.92 28.0024 108.32 27.6053 106.888 26.8111C105.456 26.0169 104.333 24.8841 103.518 23.4125C102.703 21.9409 102.296 20.2358 102.296 18.2971C102.296 16.3584 102.703 14.6532 103.518 13.1817C104.333 11.7101 105.456 10.5773 106.888 9.78308C108.32 8.98892 109.92 8.59184 111.689 8.59184C114.087 8.59184 115.961 9.35097 117.312 10.8692V1.72456ZM112.632 23.5176C114.006 23.5176 115.146 23.0446 116.054 22.0986C116.962 21.1526 117.416 19.8854 117.416 18.2971C117.416 16.7087 116.962 15.4416 116.054 14.4956C115.146 13.5496 114.006 13.0766 112.632 13.0766C111.235 13.0766 110.083 13.5496 109.175 14.4956C108.267 15.4416 107.813 16.7087 107.813 18.2971C107.813 19.8854 108.267 21.1526 109.175 22.0986C110.083 23.0446 111.235 23.5176 112.632 23.5176Z" fill="#04080E"/>
<path d="M143.875 18.3657C143.875 18.4358 143.842 18.9262 143.776 19.8371H130.362C130.604 21.0049 131.175 21.9275 132.076 22.6048C132.977 23.2821 134.097 23.6208 135.437 23.6208C136.36 23.6208 137.179 23.4748 137.893 23.1828C138.607 22.8909 139.272 22.4296 139.887 21.799L142.623 24.952C140.953 26.984 138.514 28 135.306 28C133.306 28 131.537 27.5854 129.999 26.7563C128.461 25.9272 127.275 24.7769 126.44 23.3055C125.605 21.834 125.187 20.1641 125.187 18.2956C125.187 16.4505 125.599 14.7864 126.423 13.3033C127.247 11.8202 128.379 10.6641 129.818 9.83497C131.257 9.00585 132.867 8.59127 134.647 8.59127C136.382 8.59127 137.953 8.98832 139.36 9.78241C140.766 10.5765 141.87 11.7151 142.672 13.1982C143.474 14.6813 143.875 16.4038 143.875 18.3657ZM134.68 12.7253C133.515 12.7253 132.537 13.0756 131.746 13.7763C130.955 14.4769 130.472 15.4345 130.296 16.6491H139.03C138.854 15.4579 138.371 14.5061 137.58 13.7938C136.789 13.0814 135.822 12.7253 134.68 12.7253Z" fill="#04080E"/>
<path d="M151.533 11.3598C152.185 10.4488 153.063 9.75977 154.169 9.29261C155.275 8.82545 156.549 8.59189 157.993 8.59189V13.6372C157.387 13.5905 156.98 13.5671 156.771 13.5671C155.211 13.5671 153.989 14.0051 153.104 14.881C152.219 15.7569 151.777 17.0708 151.777 18.8227V27.7221H146.33V8.87217H151.533V11.3598Z" fill="#04080E"/>
<path d="M8.32997 8.46767V8.87352H13.2216V13.1221H8.47175V28.0001H2.94207V13.1221H0V8.85785H2.94207V8.43208C2.94207 6.24996 3.58603 4.51847 4.87391 3.23769C6.16181 1.95686 7.9755 1.31645 10.315 1.31645C11.1421 1.31645 11.9278 1.4054 12.6722 1.58329C13.4166 1.76118 14.0369 2.01615 14.5331 2.34822L13.0798 6.36854C12.4418 5.91788 11.6974 5.69256 10.8467 5.69256C9.16888 5.69256 8.32997 6.6176 8.32997 8.46767Z" fill="#2663D0"/>
<path d="M16.2673 28V8.85894H21.797V28H16.2673ZM19.0321 6.1906C18.016 6.1906 17.1889 5.89411 16.5509 5.30116C15.9129 4.70817 15.5938 3.9729 15.5938 3.0953C15.5938 2.2177 15.9129 1.48242 16.5509 0.889453C17.1889 0.296485 18.016 0 19.0321 0C20.0483 0 20.8754 0.284624 21.5134 0.853875C22.1514 1.42312 22.4705 2.13469 22.4705 2.98856C22.4705 3.9136 22.1514 4.67854 21.5134 5.28335C20.8754 5.88818 20.0483 6.1906 19.0321 6.1906Z" fill="#2663D0"/>
<path d="M44.3438 28H38.0698L33.8869 22.1296L29.5626 28H23.5366L30.8741 18.3583L23.7848 8.85893H29.9879L34.0288 14.4447L38.176 8.85893H44.0604L36.971 18.216L44.3438 28Z" fill="#2663D0"/>
</svg>
