<svg width="128" height="48" viewBox="0 0 128 48" fill="none" xmlns="http://www.w3.org/2000/svg">
  <path d="M124.011 22.2522L124.141 20.0565H127.919V35.9761H124.205L124.011 33.6511C123.581 34.5122 122.86 35.1904 121.848 35.6855C120.836 36.1806 119.835 36.439 118.845 36.4605C116.412 36.482 114.437 35.7554 112.919 34.2809C111.402 32.8061 110.643 30.7127 110.643 28.0001C110.643 25.3522 111.423 23.2963 112.984 21.8324C114.545 20.3686 116.531 19.6474 118.942 19.6689C120.018 19.6689 121.019 19.9058 121.945 20.3794C122.87 20.853 123.559 21.4772 124.011 22.2522ZM99.9543 15.9877L103.894 15.5679V20.0887H108.286V23.4794H103.862V30.3574C103.862 31.0894 104.05 31.6491 104.427 32.0365C104.803 32.4241 105.304 32.6178 105.928 32.6178C106.553 32.6178 107.188 32.4563 107.833 32.1334L108.931 35.4918C107.876 35.9224 106.789 36.1483 105.67 36.1699C103.905 36.2345 102.511 35.7663 101.488 34.7652C100.466 33.7642 99.9543 32.2949 99.9543 30.3574V23.4794H96.9835V20.0887H99.9543V15.9877ZM65.919 19.9918H61.9795V35.9761H65.919V19.9918ZM93.9159 19.9918H89.9763V35.9761H93.9159V19.9918ZM85.9397 35.9761H82.0002V27.645C82.0002 26.3963 81.6666 25.3737 80.9992 24.5772C80.3319 23.7806 79.3847 23.3824 78.1575 23.3824C76.9735 23.3824 75.9993 23.813 75.2351 24.674C74.4709 25.5353 74.0889 26.5901 74.0889 27.8387V35.9761H70.1815V20.0241H73.7013L73.9597 22.1877C75.5958 20.5946 77.3394 19.7981 79.1909 19.7981C81.1284 19.7981 82.7376 20.4923 84.0185 21.8809C85.2993 23.2694 85.9397 25.18 85.9397 27.6127V35.9761ZM119.297 23.1886C117.941 23.1886 116.816 23.6193 115.923 24.4803C115.029 25.3414 114.582 26.5147 114.582 28.0001C114.582 29.4855 115.029 30.6642 115.923 31.5361C116.816 32.4079 117.941 32.8439 119.297 32.8439C120.481 32.8439 121.477 32.5101 122.284 31.8428C123.091 31.1755 123.586 30.3735 123.769 29.4371C123.952 28.5006 123.952 27.5588 123.769 26.6116C123.586 25.6643 123.091 24.8571 122.284 24.1897C121.477 23.5224 120.481 23.1886 119.297 23.1886ZM65.919 11.908H61.9795V17.0764H65.919V11.908ZM93.9159 11.908H89.9763V17.0764H93.9159V11.908Z" fill="#262A5C" />
  <path d="M48.0001 22H35.9185V26H48.0001V22Z" fill="#262A5C" />
  <path d="M36.6466 8.44371L30.9897 14.1006L33.8182 16.929L39.4751 11.2722L36.6466 8.44371Z" fill="#262A5C" />
  <path d="M11.9184 22H0V26H11.9184V22Z" fill="#262A5C" />
  <path d="M14.0187 31.0712L8.36182 36.728L11.1902 39.5564L16.8471 33.8996L14.0187 31.0712Z" fill="#262A5C" />
  <path d="M39.4747 36.7282L33.8179 31.0713L30.9894 33.8997L36.6463 39.5566L39.4747 36.7282Z" fill="#262A5C" />
  <path d="M16.8473 14.1005L11.1904 8.4436L8.36199 11.272L14.0189 16.9289L16.8473 14.1005Z" fill="#262A5C" />
  <path d="M26.0005 48L26.0005 20H22.0005L22.0005 48H26.0005Z" fill="#262A5C" />
  <path d="M26.0005 14.002L26.0005 0L22.0005 0L22.0005 14.002H26.0005Z" fill="#262A5C" />
</svg>
