<svg width="240" height="60" viewBox="0 0 240 60" fill="none" xmlns="http://www.w3.org/2000/svg">
<path d="M53.5972 34.3757C52.1231 32.7141 50.5982 30.9963 49.9626 29.0631C48.5732 24.834 48.9148 22.3757 49.4287 18.6564C49.7241 16.5244 50.0919 13.8719 50.1827 10.2452C50.2889 6.0237 49.3702 3.19063 47.456 1.82493C45.8157 0.654977 43.4768 0.591244 40.5085 1.63828C38.3374 2.40307 36.2093 3.37272 34.152 4.30899C30.3389 6.04494 26.7382 7.68379 23.8377 7.51231C22.839 7.45313 21.6188 7.30291 20.2062 7.1284C14.9652 6.48197 7.78848 5.59426 4.11547 8.55328C2.98295 9.46527 2.40438 11.051 2.34898 13.4015C2.2982 15.491 2.65673 17.9797 3.00141 20.3863C3.55536 24.2406 4.12778 28.227 3.03373 30.6564C0.605574 36.054 -0.349993 40.3316 0.113172 43.7353C0.590186 47.2466 2.57364 49.8475 6.17586 51.6867C8.37013 52.8066 10.4828 53.1055 12.7217 53.4211C15.7685 53.8506 19.2214 54.3377 23.7515 56.9962C25.9412 58.2815 27.8723 58.8976 29.7973 58.8976C30.4451 58.8976 31.0929 58.8278 31.75 58.6897C34.7274 58.0645 37.9004 56.0296 41.738 52.2876C43.7122 50.362 46.0865 49.2421 48.3839 48.1586C51.0367 46.9082 53.7788 45.6154 55.8561 43.0767C58.4781 39.8734 56.1084 37.2042 53.5987 34.3787L53.5972 34.3757ZM4.3986 25.7384C4.3232 24.0115 4.30012 22.2922 4.45246 20.6913C4.69866 18.0844 5.38648 16.1815 6.55286 14.875C8.11008 13.1314 10.4397 11.8522 13.6742 10.966C16.4655 10.2012 19.4061 9.86284 22.0004 9.56542L22.4082 9.51838C24.3701 9.29228 26.4736 8.79 28.6986 8.2589C31.1468 7.67468 33.6796 7.06922 36.2093 6.79305C36.6601 6.74449 37.1048 6.71869 37.5311 6.71869C39.5407 6.71869 41.2348 7.26801 42.5659 8.35146C43.9369 9.46679 44.9171 11.1451 45.4787 13.3393C46.1373 15.9129 46.5358 17.9023 46.9221 19.8264C47.1713 21.0677 47.4129 22.274 47.7115 23.5593C47.5206 22.8385 47.3406 22.145 47.1637 21.4607C46.5435 19.0601 45.9573 16.7945 44.9571 13.7445C44.2216 11.5017 43.0244 9.81883 41.401 8.74296C39.8223 7.69744 37.8634 7.23766 35.5768 7.37878C32.7609 7.55177 29.9358 8.14205 27.2029 8.71413C25.4411 9.08287 23.7761 9.43037 22.1851 9.65343C19.4522 10.0373 16.5501 10.5123 13.8542 11.3909C10.6675 12.4273 8.35474 13.831 6.78367 15.6792C5.54343 17.1375 4.80637 19.2088 4.5294 22.0085C4.40937 23.2148 4.38168 24.4713 4.3986 25.7429V25.7384ZM4.24934 25.4076C4.12163 23.3878 4.03392 21.3545 4.19395 19.5047C4.41091 16.9964 5.0695 15.1876 6.2051 13.9751C7.72077 12.3575 9.97966 11.2058 13.111 10.4546C15.8162 9.80518 18.6829 9.56542 21.2126 9.35298C21.7003 9.31201 22.162 9.27407 22.6098 9.2331C24.8256 9.0328 27.2599 8.37271 29.8357 7.67316C32.1131 7.05556 34.4689 6.41672 36.8294 6.05708C37.4464 5.963 38.0481 5.91444 38.6143 5.91444C40.5963 5.91444 42.2412 6.49259 43.503 7.63219C44.8032 8.8067 45.6911 10.5745 46.145 12.8871C46.6312 15.3636 46.9098 17.3438 47.1544 19.0919C47.4037 20.8689 47.633 22.4925 48.0284 24.2998C47.6391 22.7202 47.3514 21.2831 47.0544 19.796C46.6682 17.8704 46.2696 15.8795 45.6095 13.3029C44.9802 10.8446 43.8323 9.02824 42.1996 7.90685C40.6116 6.81581 38.5913 6.39547 36.1939 6.65647C33.6565 6.93265 31.1191 7.53963 28.6663 8.12385C26.4443 8.65495 24.3455 9.15571 22.3913 9.38029L21.9835 9.42733C16.9271 10.0085 10.0012 10.8037 6.44976 14.7824C5.26338 16.1102 4.56633 18.0388 4.31705 20.6746C4.17394 22.1799 4.18625 23.7869 4.24934 25.4045V25.4076ZM49.8426 38.0115C48.4577 41.4272 46.1096 43.928 43.6245 46.5744C43.3829 46.8309 43.1398 47.0903 42.8951 47.3529C39.0344 51.4909 35.106 53.456 30.5359 53.5349C29.9465 53.5456 29.4372 53.5516 28.971 53.5562C29.6926 53.5167 30.4405 53.4606 31.216 53.3862C32.3408 53.2785 33.4426 53.0645 34.4905 52.7474C35.5384 52.4317 36.5693 52.0023 37.5541 51.4742C38.5359 50.9477 39.5053 50.3028 40.4347 49.5592C41.3579 48.8202 42.275 47.9568 43.1583 46.9932C44.3231 45.7231 45.6695 44.2042 46.8128 42.5744C47.9777 40.9128 48.8332 39.2785 49.4287 37.579C50.3443 34.9644 49.9134 32.3757 49.1933 29.6943C50.1488 32.5365 50.969 35.2391 49.8442 38.0115H49.8426ZM49.5118 30.0752C49.5287 30.1192 49.5472 30.1647 49.5641 30.2088C50.6766 33.0358 51.7276 35.7065 50.4443 38.5107C49.0732 41.5046 46.9559 43.626 44.7124 45.8718C44.08 46.5046 43.4276 47.1586 42.7767 47.8445C40.7686 49.9659 38.8221 51.4788 36.8309 52.4697C34.8875 53.4348 32.8948 53.9052 30.739 53.9052C30.4543 53.9052 30.162 53.8961 29.8696 53.8809C29.0171 53.8324 28.1816 53.7929 27.3737 53.755C27.2737 53.7504 27.1737 53.7459 27.0721 53.7413C27.3584 53.7443 27.6446 53.7459 27.9292 53.7459C28.8079 53.7459 29.6819 53.7337 30.5374 53.7185C35.1614 53.6381 39.1314 51.6563 43.029 47.4788C43.2737 47.2163 43.5199 46.9538 43.7584 46.7004C45.0356 45.3392 46.2435 44.0539 47.3144 42.6685C48.5178 41.1131 49.3748 39.6549 50.0134 38.0813C51.1044 35.3923 50.412 32.793 49.5118 30.0767V30.0752ZM49.241 37.5153C47.9053 41.3316 45.431 44.2254 43.0121 46.8627C41.2364 48.799 39.4206 50.2512 37.4603 51.3028C35.4922 52.3589 33.4441 52.9765 31.196 53.192C31.096 53.2011 30.9975 53.2102 30.899 53.2193C31.2299 53.1707 31.5607 53.1176 31.8931 53.0585C32.9948 52.8627 34.0766 52.5713 35.1091 52.1935C36.1292 51.8202 37.1294 51.3513 38.0788 50.802C39.019 50.2572 39.9361 49.6184 40.804 48.9022C41.6641 48.1935 42.4997 47.3893 43.286 46.5137C44.637 45.0114 45.7265 43.5653 46.6189 42.0919C47.099 41.2982 47.5268 40.4849 47.8884 39.6746C48.2669 38.8278 48.5885 37.9553 48.8424 37.0797C49.3071 35.4804 49.4472 33.7656 49.2671 31.8355C49.1933 31.0449 49.0686 30.2224 48.8824 29.3119C49.6626 32.1177 50.1858 34.8127 49.241 37.5137V37.5153ZM48.6378 37.0236C48.1392 38.7383 47.4191 40.362 46.4358 41.9856C45.551 43.4469 44.4693 44.884 43.1275 46.3756C40.2362 49.5896 36.8355 51.6821 33.0056 52.6108C43.5276 49.5865 50.0519 39.4121 48.5839 28.9295C49.1686 31.5942 49.4179 34.3438 48.6378 37.0236ZM47.6053 18.752C47.456 16.9842 47.2868 14.9812 46.9159 12.4304C46.4866 9.47437 45.3987 7.36512 43.683 6.16331C42.0904 5.04646 39.9854 4.73084 37.4264 5.22401C35.1629 5.65951 32.9163 6.34388 30.7436 7.00397C27.8908 7.87195 25.1964 8.69137 22.8036 8.84918C22.1543 8.89167 21.4572 8.92657 20.7186 8.96148C18.2074 9.08439 15.3622 9.22399 12.6771 9.76876C9.55651 10.4015 7.30069 11.4607 5.78348 13.004C3.25069 15.5791 3.64153 20.5745 4.02622 25.4121C3.99391 25.0555 3.9616 24.6959 3.92774 24.3332C3.48458 19.5426 3.02603 14.5897 5.51266 12.1769C7.02064 10.7141 9.26568 9.75358 12.377 9.23917C15.0637 8.79456 17.9104 8.75814 20.4216 8.72475C21.3495 8.71261 22.2266 8.70047 23.0144 8.66861C25.5642 8.5639 28.4893 7.57908 31.5868 6.5366C33.6919 5.82795 35.8677 5.09502 38.0635 4.59123C38.9698 4.38334 39.83 4.27712 40.6193 4.27712C42.5751 4.27712 44.1492 4.91748 45.3002 6.17848C46.4866 7.47893 47.219 9.43795 47.4791 11.9994C47.753 14.7005 47.8207 16.7794 47.8807 18.6124C47.9715 21.3954 48.0423 23.5381 48.7532 26.3681C48.01 23.5532 47.8269 21.3863 47.6037 18.7505L47.6053 18.752ZM5.85888 13.0768C7.36224 11.5487 9.59959 10.5002 12.6986 9.87043C15.3761 9.32718 18.2182 9.18758 20.7248 9.06466C21.4634 9.02824 22.162 8.99486 22.8129 8.95085C25.2164 8.79304 27.9169 7.9721 30.7759 7.1026C32.9456 6.44252 35.1906 5.75966 37.448 5.32416C38.2158 5.17545 38.9529 5.10109 39.6391 5.10109C41.6041 5.10109 43.2106 5.70959 44.4124 6.90837C45.6511 8.14509 46.4589 10.007 46.8128 12.4425C47.1821 14.9903 47.3514 16.9918 47.5006 18.7581C47.6899 21.0054 47.8515 22.9129 48.3546 25.1693C47.8253 22.9933 47.5637 21.1359 47.2744 19.0737C47.0282 17.3256 46.7497 15.3423 46.2635 12.8628C45.7388 10.1891 44.6401 8.24069 42.9982 7.07074C41.401 5.93417 39.3206 5.55329 36.8109 5.93569C34.4428 6.29684 32.0839 6.9372 29.8034 7.5548C27.2322 8.25131 24.804 8.90988 22.599 9.11019C22.1512 9.15116 21.6911 9.18909 21.2033 9.23006C18.669 9.44251 15.7977 9.68226 13.0833 10.3348C9.92888 11.092 7.64999 12.2543 6.11739 13.8901C4.96179 15.1223 4.29397 16.9539 4.07392 19.491C3.91851 21.2922 3.99699 23.2649 4.11855 25.2285C3.74002 20.4683 3.39072 15.5851 5.86042 13.0738L5.85888 13.0768ZM42.3427 15.4941C41.164 14.1071 39.7699 12.9539 38.1989 12.0647C36.6493 11.1891 34.9367 10.576 33.1087 10.2452C31.6469 9.97513 30.1143 9.83856 28.5386 9.83856C28.12 9.83856 27.6969 9.84766 27.2722 9.86739C25.338 9.9554 23.3514 10.2422 21.3649 10.7202C20.0123 11.0464 18.6905 11.4744 17.4349 11.9964C16.1639 12.5244 14.9529 13.1496 13.8342 13.8568C12.6909 14.5791 11.6323 15.3939 10.6875 16.2786C9.715 17.1891 8.85176 18.183 8.12085 19.2361C7.30839 20.4167 6.63595 21.749 6.12047 23.1951C5.63268 24.5699 5.28185 26.0601 5.08027 27.6261C5.06334 27.7581 5.04796 27.8916 5.03411 28.0236C5.05411 27.6458 5.08181 27.274 5.11566 26.9113C5.44342 23.4303 6.3959 20.5866 7.94697 18.4592C9.39186 16.4774 11.4045 14.7778 13.9296 13.4061C16.1747 12.186 18.7598 11.2574 21.6111 10.6428C25.001 9.91291 27.9646 9.55783 30.6713 9.55783C31.7176 9.55783 32.7378 9.61246 33.7026 9.7202C37.6003 10.1572 40.7563 12.0389 42.8305 15.1618C44.2354 17.2771 45.3356 19.2619 46.2573 21.3894C46.1188 21.1086 45.9773 20.8309 45.8296 20.5578C44.8848 18.8006 43.7445 17.1435 42.3427 15.4926V15.4941ZM45.7911 20.9478C41.878 14.3363 34.6413 10.2361 26.8767 10.2361C25.7057 10.2361 24.5224 10.3302 23.336 10.5214C25.0979 10.2073 26.8413 10.048 28.5401 10.048C30.0989 10.048 31.6222 10.183 33.0671 10.4501C36.7124 11.1117 39.8623 12.9023 42.1781 15.6276C43.6261 17.3332 44.8171 19.0813 45.7911 20.9463V20.9478ZM21.0972 11.004C12.4771 13.3211 6.46207 20.4061 5.18952 28.5957C5.21722 28.2786 5.25107 27.9629 5.29108 27.6519C5.70654 24.4364 6.7175 21.6443 8.29627 19.3529C9.73192 17.2847 11.6338 15.4956 13.9481 14.0328C16.0885 12.6807 18.492 11.6625 21.0972 11.0024V11.004ZM5.02026 40.4849C5.33109 42.2102 5.84811 43.7869 6.55594 45.1738C7.27453 46.5805 8.21163 47.8354 9.34108 48.9022C10.4859 49.9826 11.8646 50.9067 13.4403 51.6457C15.3561 52.5425 17.2918 53.0311 19.3322 53.3483C16.9671 53.0281 14.779 52.5668 12.5909 51.5289C11.0029 50.7747 9.63498 49.8354 8.52554 48.7383C7.43149 47.6563 6.54824 46.3817 5.90196 44.9492C5.26492 43.5395 4.83561 41.9265 4.62172 40.1541C4.41399 38.4166 4.4063 36.4637 4.60172 34.3483C4.6448 33.8855 4.66788 33.403 4.67866 32.9022C4.69404 33.582 4.69404 34.2376 4.67096 34.8612C4.59556 36.8961 4.71251 38.7884 5.01872 40.4834L5.02026 40.4849ZM13.5065 51.5107C11.9462 50.7777 10.5798 49.8642 9.44725 48.7944C8.32858 47.7383 7.40225 46.4985 6.69135 45.107C5.99121 43.7337 5.47881 42.1708 5.16952 40.4591C4.86485 38.7732 4.74944 36.8931 4.82484 34.8673C4.83253 34.6427 4.83868 34.4151 4.84022 34.1829C4.85715 34.5927 4.86946 34.9948 4.87715 35.3878C4.91562 37.3332 5.14028 39.1541 5.5419 40.8005C5.94813 42.4636 6.5467 43.9917 7.32223 45.3422C8.10546 46.7079 9.09026 47.928 10.2474 48.9705C11.4184 50.0236 12.7971 50.9234 14.3466 51.6412C16.0747 52.4409 17.8396 52.931 19.6784 53.2481C17.5303 52.9355 15.5038 52.4469 13.5034 51.5107H13.5065ZM42.9952 15.0555C40.8886 11.8826 37.6819 9.97209 33.7242 9.52748C30.2451 9.1375 26.2689 9.43947 21.5665 10.4531C20.1893 10.749 18.8521 11.1269 17.5919 11.5745C16.2516 12.0495 14.9868 12.6094 13.8327 13.2361C11.2814 14.6215 9.24722 16.3408 7.78386 18.3454C6.95909 19.4759 6.29589 20.8142 5.81272 22.3211C5.37417 23.6853 5.07258 25.2239 4.91562 26.8931C4.90331 27.0236 4.89254 27.1541 4.88177 27.2877C4.89562 26.8355 4.91562 26.3863 4.94794 25.9402C5.20491 22.2877 6.07123 19.5472 7.59613 17.5639C9.0641 15.6534 11.1907 14.0449 13.9158 12.7809C16.1455 11.7475 18.7998 10.9342 21.8081 10.3621C25.2656 9.70351 29.1833 8.95844 33.0071 8.95844C33.4564 8.95844 33.9027 8.96906 34.332 8.99031C38.4651 9.19061 41.6303 11.1648 43.4845 14.7005C44.8832 17.3681 45.8588 19.6048 46.6928 21.9189C45.7157 19.5502 44.537 17.3803 42.9936 15.0555H42.9952ZM46.3912 20.5912C45.6295 18.6291 44.7586 16.7308 43.6491 14.617C41.7626 11.0206 38.5451 9.01307 34.3428 8.80973C30.0835 8.60336 25.6688 9.44402 21.7742 10.1845C18.7521 10.7596 16.0824 11.5776 13.8389 12.617C11.086 13.8932 8.93639 15.5199 7.45149 17.4546C5.90504 19.4683 5.02641 22.2391 4.76636 25.928C4.7479 26.2012 4.73251 26.4743 4.7202 26.749C4.72328 25.6944 4.76175 24.6503 4.85869 23.6291C5.14951 20.5745 5.9312 18.2983 7.24837 16.6686C8.03776 15.6913 9.03641 14.8036 10.2182 14.0252C11.2799 13.3272 12.5217 12.6974 13.9081 12.1557C16.1316 11.2862 18.7059 10.6261 22.0081 10.0814C23.0298 9.91291 24.0623 9.71868 25.1579 9.51231C28.3632 8.90988 31.6792 8.28773 34.9629 8.25738C35.0044 8.25738 35.046 8.25738 35.0875 8.25738C39.3899 8.25738 42.5228 10.3272 44.1492 14.2422C45.4341 17.3332 46.2389 19.7202 47.039 22.3469C46.8251 21.7369 46.6112 21.1572 46.3927 20.5927L46.3912 20.5912ZM44.3031 14.1785C43.4599 12.1496 42.215 10.6003 40.6009 9.56997C39.0621 8.58818 37.2079 8.09046 35.086 8.09046C35.0444 8.09046 35.0013 8.09046 34.9598 8.09046C31.6607 8.12081 28.3385 8.74448 25.1256 9.34842C24.0316 9.55328 22.9991 9.74751 21.9804 9.91595C18.6659 10.4637 16.0824 11.1254 13.8466 12.0009C12.4494 12.5472 11.1968 13.183 10.1258 13.8871C8.93023 14.6731 7.91773 15.5745 7.11912 16.5639C5.7804 18.2194 4.98794 20.5244 4.69404 23.6124C4.61403 24.4485 4.57402 25.3013 4.56017 26.1602C4.53093 24.749 4.55094 23.3514 4.68327 22.0176C4.95717 19.2482 5.68346 17.2058 6.90215 15.7703C8.45476 13.9432 10.7444 12.5563 13.9035 11.529C16.5886 10.6549 19.483 10.18 22.2081 9.79759C23.8054 9.57301 25.4718 9.22551 27.2368 8.85525C29.9635 8.28469 32.784 7.69593 35.5876 7.52294C35.8507 7.50624 36.1123 7.49866 36.3678 7.49866C38.4174 7.49866 40.1746 8.02066 41.5903 9.051C43.0459 10.1117 44.1308 11.705 44.8124 13.7854C45.8111 16.8294 46.3958 19.095 47.0159 21.4925C47.136 21.9554 47.256 22.4227 47.3806 22.8992C46.5158 20.0237 45.688 17.5108 44.3031 14.1785ZM4.54171 31.5335C4.56171 32.5274 4.54786 33.4697 4.46784 34.3362C4.27088 36.4606 4.27858 38.4227 4.48785 40.1693C4.70174 41.9553 5.13566 43.582 5.77886 45.0039C6.43283 46.4515 7.32377 47.7398 8.43014 48.8324C9.55035 49.9401 10.9306 50.8885 12.5325 51.6487C14.9037 52.7732 17.2672 53.2254 19.8538 53.5501C16.9025 53.1829 14.3143 52.8111 11.6769 51.5471C5.37417 48.5167 3.05681 42.8855 4.38168 33.8263C4.48631 33.1162 4.53093 32.3453 4.54017 31.532L4.54171 31.5335ZM14.4205 51.4924C12.8864 50.7808 11.5215 49.8915 10.3628 48.8491C9.21798 47.8187 8.24549 46.6123 7.46996 45.2618C5.94967 42.6124 5.13566 39.3149 5.04796 35.4606C5.04796 35.4637 5.04796 35.4652 5.04796 35.4682C5.06027 35.6169 5.07104 35.7656 5.08335 35.9128C5.38033 39.6442 6.38975 42.8749 8.08392 45.5137C9.79809 48.1829 12.2109 50.2436 15.256 51.6366C16.3716 52.1465 17.5257 52.5471 18.7844 52.8612C19.2106 52.9674 19.6477 53.0645 20.0954 53.1495C18.1289 52.8369 16.2516 52.3392 14.4205 51.4909V51.4924ZM15.333 51.4727C12.3201 50.0949 9.9335 48.057 8.23779 45.4166C6.73289 43.0721 5.77271 40.2542 5.37879 37.0282C5.92504 40.3332 7.0868 43.2436 8.83637 45.6867C9.75346 46.9674 10.8368 48.1192 12.0554 49.1085C13.2818 50.1055 14.6636 50.9538 16.1639 51.6305C17.5565 52.2572 19.0245 52.7292 20.6032 53.0569C18.6629 52.7216 16.9318 52.2011 15.333 51.4712V51.4727ZM16.247 51.4545C13.268 50.1101 10.8291 48.1328 8.99794 45.5759C7.5592 43.5668 6.52208 41.2376 5.90196 38.6306C6.21125 39.7186 6.59902 40.7687 7.06065 41.7671C7.74231 43.2421 8.59017 44.623 9.58266 45.8688C10.5675 47.104 11.7015 48.2193 12.9556 49.1844C14.2097 50.1495 15.5961 50.972 17.0733 51.629C18.1797 52.1207 19.3461 52.5228 20.5432 52.8263C20.7202 52.8703 20.8987 52.9128 21.0772 52.9537C19.3399 52.626 17.7381 52.1283 16.247 51.4575V51.4545ZM17.161 51.4348C14.2112 50.1237 11.7169 48.2057 9.75039 45.7368C8.43168 44.0797 7.38994 42.2239 6.63595 40.1935C9.36416 46.6548 15.0391 51.2557 21.6496 52.8581C20.08 52.541 18.5798 52.0645 17.161 51.4348ZM19.9123 52.1252C17.7042 51.3862 15.6392 50.3088 13.7773 48.9204C11.8954 47.5183 10.2705 45.8384 8.94716 43.9265C7.57767 41.9492 6.55901 39.7626 5.92043 37.4272C5.15875 34.6382 4.97256 31.7869 5.36802 28.9508C5.75117 26.2103 6.65595 23.6003 8.06084 21.1921C9.46572 18.7839 11.2984 16.6989 13.508 14.9948C15.7962 13.2316 18.389 11.9554 21.2172 11.2043C23.0714 10.7111 24.9748 10.4607 26.8783 10.4607C29.2387 10.4607 31.573 10.8416 33.8165 11.5927C36.0246 12.3317 38.0896 13.4106 39.9515 14.7976C41.8334 16.1997 43.4583 17.8795 44.7817 19.7915C46.1512 21.7687 47.1698 23.9554 47.8069 26.2907C48.5685 29.0798 48.7547 31.9311 48.3593 34.7672C47.9761 37.5077 47.0713 40.1177 45.6664 42.5259C44.2616 44.934 42.4289 47.019 40.2193 48.7231C37.9311 50.4864 35.3383 51.7626 32.5101 52.5137C30.6559 53.0069 28.7509 53.2572 26.849 53.2572C24.4886 53.2572 22.1543 52.8764 19.9108 52.1267L19.9123 52.1252ZM27.3645 53.9173C28.1724 53.9553 29.0079 53.9962 29.8604 54.0433C30.1558 54.06 30.4497 54.0691 30.739 54.0691C32.7717 54.0691 34.6644 53.6548 36.4986 52.8111C38.6497 51.8217 40.744 50.2345 42.8998 47.9568C43.5491 47.2709 44.2015 46.6184 44.8324 45.9872C47.0867 43.7307 49.2148 41.6002 50.5981 38.579C51.863 35.8157 50.9198 33.2042 49.8411 30.4561C49.9057 30.6003 49.9703 30.7429 50.035 30.8855C51.2798 33.6351 52.4539 36.233 51.0459 39.0115C49.6457 41.7747 47.6022 43.6609 45.4402 45.6579C44.5293 46.5001 43.586 47.3711 42.6613 48.3346C40.6332 50.45 38.7067 51.9538 36.7724 52.934C34.9044 53.8809 33.0164 54.3407 31.0021 54.3407C30.4189 54.3407 29.8142 54.3012 29.2018 54.2238C27.7584 54.0402 26.3966 53.9158 25.0764 53.802C25.8242 53.8445 26.5859 53.8809 27.3645 53.9173ZM49.6657 28.6261C48.3546 24.5684 48.5054 22.0373 48.7116 18.5335C48.8317 16.5153 48.9655 14.227 48.8763 11.1178C48.7578 7.39851 47.7653 4.85223 45.9265 3.54723C44.3108 2.40156 42.0735 2.24071 39.276 3.07075C37.1125 3.70808 34.9829 4.55633 32.924 5.37727C29.4818 6.74904 26.2274 8.04646 23.5007 8.04646C23.4745 8.04646 23.4484 8.04646 23.4238 8.04646C22.4867 8.03735 21.3618 7.97362 20.1708 7.90533C15.1622 7.61854 8.30088 7.22703 4.78329 10.3332C2.27512 12.5487 2.86293 17.5047 3.43073 22.2998C3.86158 25.9326 4.26781 29.3635 3.44304 31.708C1.635 36.8506 1.08566 40.9098 1.76579 44.1207C2.47208 47.4576 4.50939 49.9295 7.99159 51.6745C10.2982 52.8308 12.554 53.1525 14.9421 53.4924C17.8042 53.9006 21.0479 54.3635 25.1087 56.3377C26.9798 57.2466 28.7001 57.6942 30.3835 57.6942C31.1914 57.6942 31.9915 57.5911 32.7948 57.3862C35.5584 56.6806 38.5682 54.6973 41.995 51.321C43.7753 49.5577 45.8465 48.4135 47.8499 47.3088C50.3997 45.9022 52.8078 44.5729 54.6866 42.0737C57.0024 38.9932 54.9359 36.3711 52.7493 33.5957C52.5647 33.362 52.38 33.1268 52.1954 32.8901C52.5031 33.2725 52.8201 33.6488 53.134 34.0236C55.4698 36.8081 57.6749 39.4363 55.2283 42.5426C53.2602 45.0524 50.6351 46.3893 48.0946 47.6821C45.9403 48.7793 43.7122 49.9143 41.8273 51.7656C38.1789 55.3407 35.1383 57.3179 32.2577 57.9856C29.7157 58.5759 27.3076 58.154 24.4532 56.6199C20.1401 54.3012 16.7794 53.8232 13.8142 53.4014C11.5138 53.0736 9.34262 52.7656 7.10527 51.6336C3.57998 49.8491 1.5796 47.3271 0.9918 43.9204C0.422461 40.626 1.17337 36.4652 3.28455 31.1996C4.24781 28.7975 3.75079 24.9978 3.26916 21.3241C2.64134 16.5366 1.99353 11.5867 4.48016 9.48196C6.64057 7.66558 10.0474 7.17696 13.5311 7.17696C15.8162 7.17696 18.1366 7.38788 20.1585 7.56998C21.4388 7.6853 22.6482 7.79608 23.6253 7.82946C23.7146 7.8325 23.8038 7.83401 23.8931 7.83401C26.6798 7.83401 30.0312 6.40154 33.5734 4.88713C35.6245 4.01005 37.7465 3.10262 39.9053 2.40307C42.7705 1.46985 45.0417 1.5791 46.6559 2.72781C48.5178 4.05254 49.4656 6.72931 49.4733 10.6807C49.4733 14.0404 49.2333 16.4531 49.0194 18.5821C48.6501 22.268 48.4054 24.7035 49.7595 28.8597C49.8303 29.0752 49.9103 29.2877 49.9996 29.4971C49.8703 29.2103 49.7549 28.9204 49.661 28.6261H49.6657ZM52.7016 33.6321C53.8095 35.0373 54.8559 36.365 55.3529 37.7414C55.6176 38.4773 55.7022 39.1602 55.6114 39.8339C55.5099 40.585 55.1913 41.3058 54.6389 42.0403C52.7678 44.5289 50.3643 45.8551 47.8207 47.2603C45.8142 48.368 43.7399 49.5122 41.9534 51.2815C39.6638 53.5364 37.6095 55.1389 35.6722 56.1768C33.8365 57.1616 32.1008 57.6396 30.3666 57.6396C28.6324 57.6396 27.0337 57.2102 25.1349 56.2861C21.0648 54.3073 17.8165 53.8445 14.9498 53.4348C12.5663 53.0949 10.3166 52.7747 8.01775 51.6229C4.55248 49.8855 2.52594 47.4272 1.82427 44.1086C1.14721 40.9083 1.69501 36.8582 3.49843 31.7262C4.32782 29.3696 3.92005 25.9311 3.48766 22.2922C2.9214 17.5123 2.33513 12.5715 4.82022 10.3757C5.93736 9.3894 7.42995 8.70351 9.38417 8.27862C10.9522 7.9372 12.8094 7.7718 15.0622 7.7718C16.8317 7.7718 18.6028 7.87347 20.1662 7.963C21.3572 8.03128 22.4836 8.09501 23.4222 8.10412C23.4484 8.10412 23.4745 8.10412 23.5007 8.10412C26.2381 8.10412 29.4972 6.80518 32.9456 5.43038C35.0029 4.60944 37.131 3.76271 39.2929 3.1269C40.4531 2.78244 41.5287 2.60793 42.4935 2.60793C44.4431 2.60793 45.9711 3.31506 47.0344 4.70807C48.1269 6.14054 48.727 8.29835 48.8178 11.1193C48.9071 14.227 48.7717 16.5123 48.6532 18.5305C48.4454 22.0403 48.2962 24.576 49.6103 28.6443C49.6595 28.7975 49.7149 28.9493 49.7734 29.0995C49.678 28.8719 49.5933 28.6427 49.5179 28.4091C48.2577 24.4713 48.2962 21.9948 48.347 18.5654C48.3762 16.6398 48.4085 14.4592 48.2239 11.5548C48.0038 8.09198 46.979 5.68986 45.1787 4.41673C43.5707 3.27864 41.3764 3.0662 38.6605 3.7885C36.4801 4.35906 34.3289 5.15269 32.2485 5.919C28.9633 7.1284 25.8611 8.27256 23.2176 8.31353C22.3405 8.32718 21.3249 8.30442 20.2508 8.28014C15.3253 8.16937 8.5794 8.01914 5.1172 11.224C2.60903 13.5457 3.13221 18.5032 3.63846 23.2983C4.00006 26.7156 4.34013 29.9432 3.64923 32.2345C2.14125 37.2345 1.79349 41.1829 2.58595 44.3073C3.41072 47.5623 5.47727 49.9704 8.901 51.6715C11.2891 52.8551 13.645 53.189 16.1378 53.541C18.8829 53.9295 21.9943 54.3695 25.7888 56.0114C27.4968 56.7504 29.0771 57.1146 30.619 57.1146C31.5268 57.1146 32.4209 56.9886 33.3195 56.7367C35.9969 55.9886 38.8759 54.06 42.1242 50.8415C43.7999 49.1677 45.7126 48.0221 47.5622 46.9143C50.0073 45.45 52.3169 44.0661 54.1019 41.5744C56.2669 38.5517 54.3512 35.9493 52.3231 33.1936C52.1169 32.9144 51.9107 32.6321 51.7061 32.3484C52.0307 32.7823 52.3677 33.2087 52.7016 33.6321ZM52.2631 33.2361C53.2894 34.6306 54.2588 35.9462 54.7159 37.3058C55.2283 38.8294 55.0144 40.1723 54.0419 41.5304C52.2662 44.0099 49.9626 45.3893 47.5237 46.8491C45.6695 47.9598 43.7538 49.107 42.0719 50.7868C39.833 53.0053 37.8142 54.5789 35.9 55.6002C34.0827 56.5683 32.3516 57.0402 30.6097 57.0402C29.0956 57.0402 27.5292 56.6806 25.8196 55.9416C22.0158 54.2967 18.8983 53.8551 16.1485 53.4666C13.5526 53.0994 11.3107 52.7823 8.93485 51.6032C5.53112 49.9128 3.47689 47.5198 2.65827 44.2876C1.87043 41.1769 2.21819 37.2406 3.72155 32.2543C4.41707 29.9493 4.07546 26.7156 3.71386 23.2907C3.20915 18.5138 2.68751 13.573 5.16952 11.2771C6.43745 10.1041 8.20548 9.30442 10.5752 8.83098C12.9202 8.3636 15.4838 8.30897 17.2087 8.30897C18.2612 8.30897 19.2737 8.33174 20.2524 8.35298C21.1064 8.37271 21.9127 8.3894 22.6451 8.3894C22.8513 8.3894 23.0406 8.3894 23.2222 8.38485C25.8781 8.34236 28.9879 7.1982 32.2777 5.98576C34.3566 5.21945 36.5047 4.42886 38.682 3.8583C39.7207 3.58213 40.6932 3.44252 41.5764 3.44252C43.526 3.44252 45.074 4.11627 46.1788 5.44404C47.316 6.81125 47.9792 8.86891 48.15 11.5578C48.3346 14.4577 48.3023 16.6382 48.2731 18.5624C48.2223 21.9569 48.1854 24.4212 49.4025 28.2877C49.3918 28.2558 49.3795 28.2224 49.3702 28.1906C48.1638 24.3802 48.0838 21.9599 47.9746 18.6094C47.9146 16.7748 47.8469 14.6944 47.5714 11.9903C47.2452 8.78393 46.1896 6.53053 44.4339 5.29077C42.8351 4.16179 40.6855 3.89776 38.045 4.50322C35.8446 5.00853 33.6657 5.74146 31.5591 6.45162C28.4678 7.49259 25.5488 8.47589 23.0114 8.57908C22.2266 8.61095 21.3495 8.62308 20.4216 8.63522C17.9073 8.66861 15.056 8.70654 12.3632 9.15116C9.23337 9.66861 6.9714 10.6367 5.44957 12.1132C2.93217 14.5548 3.39226 19.5305 3.83696 24.3408C4.1324 27.5259 4.41091 30.5365 3.85234 32.7581C2.63673 37.6048 2.48747 41.4409 3.3938 44.4849C4.34013 47.6594 6.43745 50.0084 9.80732 51.6639C12.2986 52.8855 14.6682 53.2147 17.4134 53.5941C20.0185 53.9553 22.9698 54.3635 26.4659 55.6806C28.0031 56.2603 29.4372 56.5486 30.8313 56.5486C31.85 56.5486 32.8471 56.3953 33.8504 56.0888C36.4462 55.2982 39.1944 53.4242 42.2519 50.3574C43.8138 48.7914 45.5557 47.6563 47.2391 46.5592C49.5949 45.0236 51.8184 43.5744 53.5172 41.0721C55.5314 38.1025 53.7664 35.5153 51.8969 32.7748C51.7507 32.5593 51.603 32.3438 51.4568 32.1268C51.7214 32.5001 51.9923 32.8688 52.2615 33.233L52.2631 33.2361ZM51.823 32.8279C52.7678 34.2133 53.6603 35.5213 54.0788 36.8673C54.5481 38.3741 54.345 39.6958 53.4433 41.0266C51.7553 43.5137 49.538 44.9583 47.1914 46.4894C45.5033 47.5896 43.7584 48.7277 42.1889 50.2997C40.0084 52.4864 38.025 54.0372 36.1277 55.0433C34.3258 55.9977 32.5917 56.4621 30.8282 56.4621C29.4541 56.4621 28.0385 56.1798 26.4997 55.6002C22.9929 54.2785 20.0354 53.8688 17.4272 53.5076C14.6913 53.1283 12.3278 52.802 9.84887 51.585C6.50362 49.9401 4.42015 47.6108 3.48151 44.4606C2.5798 41.4318 2.72905 37.6109 3.94005 32.7808C4.26319 31.4895 4.30782 29.9386 4.22934 28.2437C4.33551 30.1162 4.34321 31.8461 4.057 33.2861C3.12451 37.9705 3.17068 41.6928 4.19703 44.6624C5.26646 47.7595 7.39917 50.0478 10.7152 51.6609C13.3418 52.9355 15.8731 53.2724 18.8044 53.6609C21.2341 53.9841 23.9869 54.3483 27.146 55.3559C28.4955 55.7853 29.7619 56.0008 30.9913 56.0008C32.1393 56.0008 33.2564 55.8141 34.3797 55.4408C36.8879 54.6078 39.5053 52.7899 42.3827 49.8809C43.8184 48.4287 45.3864 47.3164 46.9005 46.2406C49.1733 44.626 51.3214 43.101 52.934 40.5775C54.8005 37.6564 53.1833 35.0767 51.4722 32.3453C51.366 32.1769 51.2598 32.0069 51.1552 31.837C51.3752 32.1708 51.5999 32.5001 51.8245 32.8279H51.823ZM51.3829 32.3984C52.2477 33.7778 53.0632 35.0813 53.4448 36.4166C53.8711 37.9098 53.6803 39.2148 52.8463 40.5198C51.2444 43.0266 49.1056 44.5456 46.8405 46.1541C45.3218 47.233 43.7507 48.3483 42.3089 49.8066C40.1746 51.9644 38.2189 53.497 36.3293 54.4894C34.532 55.4348 32.7855 55.893 30.9898 55.893C29.7727 55.893 28.5263 55.6852 27.1799 55.2557C24.0116 54.2466 21.2541 53.8809 18.8198 53.5577C15.8977 53.1692 13.3757 52.8354 10.7629 51.5668C7.47303 49.9674 5.35878 47.6973 4.29704 44.629C3.27685 41.6761 3.23223 37.972 4.16009 33.3059C4.35244 32.3377 4.41399 31.2421 4.40014 30.0631C4.44477 31.4242 4.42476 32.6928 4.26011 33.8112C2.92601 42.928 5.26492 48.5987 11.6215 51.6548C14.4313 53.0023 17.178 53.3422 20.3586 53.7337C22.6682 54.019 25.0564 54.3134 27.8215 55.0266C28.9617 55.321 30.0419 55.4682 31.0914 55.4682C32.3916 55.4682 33.6442 55.2421 34.9059 54.7868C37.3249 53.9143 39.8115 52.151 42.5089 49.3984C43.803 48.0782 45.1833 47.0084 46.5174 45.9735C48.7255 44.2618 50.812 42.6442 52.3462 40.0752C54.0665 37.1951 52.5955 34.6154 51.0398 31.884C50.9721 31.7641 50.9044 31.6443 50.8351 31.5244C51.0152 31.8172 51.1967 32.1086 51.3783 32.3984H51.3829ZM50.9382 31.9432C51.723 33.321 52.4662 34.6245 52.8093 35.9538C53.1925 37.4409 53.014 38.7307 52.2462 40.016C50.7228 42.5668 48.6455 44.1768 46.4466 45.8809C45.1094 46.9174 43.7261 47.9902 42.4258 49.3164C40.3331 51.4515 38.3974 52.9689 36.5078 53.9522C34.7044 54.8915 32.9317 55.3483 31.0868 55.3483C30.0466 55.3483 28.9894 55.2056 27.8554 54.9143C25.0825 54.1996 22.5821 53.8915 20.3755 53.6199C20.257 53.6047 20.1385 53.5911 20.0216 53.5759C20.7186 53.6624 21.4326 53.7398 22.1681 53.8187C24.1562 54.0342 26.212 54.2572 28.5032 54.7018C29.3895 54.8733 30.2512 54.9598 31.0914 54.9598C32.5917 54.9598 34.0304 54.6852 35.4383 54.1328C37.768 53.2193 40.1239 51.5152 42.6413 48.9189C43.7692 47.7565 44.9432 46.7611 46.0804 45.799C48.25 43.9629 50.2996 42.2269 51.7661 39.5775C53.3433 36.7262 52.0169 34.1329 50.612 31.3863C50.5781 31.3195 50.5443 31.2543 50.5104 31.1875C50.652 31.4409 50.7967 31.6928 50.9382 31.9432ZM50.4904 31.4455C51.8784 34.1587 53.1894 36.7231 51.646 39.5107C50.1919 42.1389 48.1515 43.8658 45.9927 45.6943C44.854 46.6594 43.6753 47.6563 42.5443 48.8233C40.487 50.9446 38.562 52.45 36.6601 53.4287C34.8352 54.368 33.0163 54.8232 31.1037 54.8232C30.2681 54.8232 29.428 54.7383 28.5324 54.5653C26.5443 54.1798 24.7363 53.9613 22.9944 53.7686C23.453 53.8096 23.9177 53.849 24.3916 53.89C25.9196 54.0205 27.4984 54.1556 29.1849 54.3695C29.8019 54.4484 30.4051 54.4864 30.9975 54.4864C32.7317 54.4864 34.372 54.1495 35.9723 53.4697C38.2127 52.5182 40.4378 50.8703 42.7736 48.4348C43.6953 47.4743 44.6355 46.6048 45.5464 45.7641C47.7191 43.7565 49.7718 41.8612 51.1844 39.0752C52.6247 36.2345 51.4352 33.6063 50.1765 30.8233C50.2812 31.0312 50.3873 31.2391 50.4935 31.444L50.4904 31.4455ZM55.8099 43.0388C53.7403 45.5668 51.0044 46.8566 48.3577 48.1055C46.0573 49.1905 43.6768 50.3119 41.6965 52.2451C37.8665 55.9811 34.7028 58.0099 31.7376 58.632C29.1479 59.1753 26.6936 58.6548 23.7807 56.9446C19.2414 54.28 15.7823 53.7929 12.731 53.3635C10.4982 53.0493 8.38859 52.7519 6.20356 51.6351C2.6198 49.805 0.647119 47.2178 0.171644 43.7262C-0.289982 40.3332 0.664045 36.0646 3.08758 30.6776C4.18779 28.2346 3.61384 24.2406 3.05835 20.3772C2.71367 17.9736 2.35668 15.4865 2.40592 13.4015C2.46131 11.0692 3.03373 9.49713 4.1524 8.59577C6.12047 7.01004 9.10565 6.5366 12.2586 6.5366C14.9606 6.5366 17.7858 6.88561 20.2001 7.18303C21.6126 7.35754 22.8329 7.50776 23.8346 7.56694C23.9762 7.57605 24.1193 7.57908 24.2655 7.57908C27.1014 7.57908 30.5436 6.01156 34.1766 4.35754C36.2323 3.42128 38.3589 2.45315 40.5285 1.68836C43.4783 0.648907 45.7988 0.709605 47.4237 1.86742C49.3225 3.2225 50.2319 6.03887 50.1273 10.2407C50.0365 13.8628 49.6687 16.5153 49.3748 18.6458C48.8578 22.3742 48.5178 24.837 49.9103 29.0783C49.9534 29.2088 49.9996 29.3377 50.0504 29.4652C49.9626 29.2604 49.8842 29.0525 49.8165 28.8431C48.4654 24.6974 48.7101 22.2664 49.0779 18.5866C49.2918 16.4561 49.5333 14.0434 49.5318 10.6792C49.5241 6.70959 48.5685 4.01915 46.6928 2.6838C45.0648 1.52599 42.7782 1.4137 39.8946 2.353C37.7326 3.05406 35.6107 3.96149 33.558 4.83857C30.0219 6.34995 26.6751 7.7809 23.8992 7.7809C23.81 7.7809 23.7207 7.7809 23.633 7.77635C22.6575 7.74297 21.4495 7.63371 20.1693 7.51687C15.0545 7.05253 8.04853 6.41824 4.45246 9.43947C1.94429 11.5624 2.59364 16.5275 3.22299 21.3287C3.70308 24.9963 4.2001 28.7884 3.24146 31.1784C1.12567 36.453 0.374759 40.623 0.945637 43.9265C1.53652 47.3498 3.54613 49.884 7.0868 51.6761C9.33031 52.8111 11.5076 53.1207 13.8112 53.4484C16.7717 53.8703 20.1277 54.3468 24.4316 56.6609C26.4736 57.758 28.2878 58.2891 30.0881 58.2891C30.8144 58.2891 31.5391 58.2026 32.2731 58.0326C35.1629 57.3619 38.2127 55.3817 41.8673 51.799C43.7461 49.9522 45.9696 48.8202 48.1208 47.7246C50.6659 46.4287 53.2971 45.0888 55.2713 42.5699C57.7441 39.4318 55.5252 36.7869 53.1756 33.9857C53.1356 33.9386 53.0955 33.8901 53.0555 33.843C53.2217 34.0327 53.3894 34.2209 53.5556 34.4075C56.0484 37.2148 58.4027 39.8673 55.8114 43.0327L55.8099 43.0388Z" fill="url(#paint0_radial_31_85)"/>
<path d="M86.4901 33.9979L73.7709 23.256H69.3447V42.7387H74.9661V31.9968L87.6575 42.7387H92.1115V23.256H86.4901V33.9979ZM43.8785 42.7387H63.501V37.9514H49.4998V35.1131H63.2509V30.5759H49.4998V28.0433H63.501V23.256H43.8785V42.7387ZM32.6045 23.256H18.2698V42.7387H23.8911V35.1409H32.6045C36.5026 35.1409 39.1465 33.0251 39.1465 29.2141C39.1465 28.1302 38.8686 27.1262 38.3405 26.209C37.2566 24.399 35.1963 23.2595 32.608 23.2595L32.6045 23.256ZM31.9097 30.6315H23.8668V27.7654H31.9097C32.9936 27.7654 33.5252 28.2379 33.5252 29.2141C33.5252 30.1903 32.9971 30.635 31.9097 30.635V30.6315ZM172.61 32.8306C176.032 32.6361 178.009 31.1874 178.009 28.4046C178.009 26.8726 177.453 25.6219 176.366 24.6735C175.254 23.7285 173.722 23.2526 171.745 23.2526H156.854V42.7352H172.356C176.115 42.7352 178.648 40.6473 178.648 37.5588C178.648 34.4704 176.366 32.9105 172.606 32.8271L172.61 32.8306ZM170.775 28.0433C171.776 28.0433 172.391 28.3768 172.391 29.353C172.391 30.3293 171.807 30.635 170.775 30.635H162.51L162.482 28.0468H170.775V28.0433ZM171.387 37.9236H162.535L162.507 35.0575H171.387C172.36 35.0575 173.002 35.5578 173.002 36.5618C173.002 37.4789 172.474 37.9271 171.387 37.9271V37.9236ZM114.159 33.442C114.159 36.5305 112.293 38.1737 109.149 38.1737C106.005 38.1737 104.139 36.5305 104.139 33.442V23.256H98.518V32.6083C98.518 40.6785 102.499 43.1834 109.149 43.1834C115.799 43.1834 119.78 40.6785 119.78 32.6083V23.256H114.159V33.442ZM197.19 33.3031H199.195C203.01 33.3031 205.459 31.4931 205.459 28.4046C205.459 25.3162 203.121 23.256 199.195 23.256H183.47V42.7387H189.092L189.064 34.8907H192.681C193.709 34.8907 194.574 35.0853 195.241 35.5022C195.908 35.9191 196.579 36.6139 197.274 37.6179C197.968 38.6462 198.972 40.345 200.307 42.7387H207.154C206.043 40.4284 205.039 38.6462 204.149 37.3677C202.367 34.8074 200.334 33.4976 197.19 33.3031ZM189.06 30.6315L189.033 27.7654H198.219C199.303 27.7654 199.834 28.2101 199.834 29.2141C199.834 30.2181 199.306 30.635 198.219 30.635H189.06V30.6315ZM228.337 23.256H222.295L210.632 42.7387H217.285L219.123 39.4557H231.509L233.347 42.7387H240L228.337 23.256ZM221.795 34.6684L225.328 28.3212L228.834 34.6684H221.791H221.795ZM138.18 34.8629L130.387 23.256H125.906V42.7387H131.527V33.442L137.593 42.7387H138.764L144.83 33.442V42.7387H150.451V23.256H145.969L138.177 34.8629H138.18Z" fill="black"/>
<defs>
<radialGradient id="paint0_radial_31_85" cx="0" cy="0" r="1" gradientUnits="userSpaceOnUse" gradientTransform="translate(28.4986 29.8946) scale(28.9563 28.5553)">
<stop offset="0.13" stop-color="#563C70"/>
<stop offset="0.32" stop-color="#E1813B"/>
<stop offset="0.74" stop-color="#FF902F"/>
<stop offset="0.76" stop-color="#F99336"/>
<stop offset="0.8" stop-color="#EA9E4C"/>
<stop offset="0.84" stop-color="#D2B070"/>
<stop offset="0.89" stop-color="#B1C8A0"/>
<stop offset="0.94" stop-color="#8BE4D9"/>
</radialGradient>
</defs>
</svg>
