<svg viewBox="0 0 90 25" fill="none" xmlns="http://www.w3.org/2000/svg">
  <path
    d="M42.676 11.54c-1.824-.35-5.434.515-5.434-2.22 0-1.467 1.014-2.07 3.115-2.07h2.995c1.184 0 2.138-.902 2.138-2.018 0-.176-.145-.314-.338-.314h-5.084c-3.478 0-5.459 1.53-5.459 4.39 0 2.483 1.57 3.75 4.034 4.139 1.823.339 5.434-.502 5.434 2.22 0 1.467-1.014 2.07-3.116 2.07H36.76c-1.184 0-2.138.903-2.138 2.019 0 .175.145.313.338.313h6.292c3.478 0 5.459-1.53 5.459-4.377 0-2.496-1.498-3.7-4.034-4.152ZM70.478 5.131c0-.113-.097-.213-.205-.213h-.133c-1.135.013-2.053.94-2.077 2.095v12.856c0 .138.096.2.205.213h.133a2.11 2.11 0 0 0 2.077-2.12V5.132ZM89.2 4.918h-.145c-1.207.013-2.185.94-2.197 2.095v9.256L79.805 5.884a2.13 2.13 0 0 0-1.123-.84 2.175 2.175 0 0 0-.568-.113c-.06 0-.108-.013-.169-.013h-1.594c-.12 0-.217.1-.217.213V19.87c0 .113.097.213.217.213h.133c1.196-.013 2.162-.916 2.198-2.044V8.744l7.04 10.372a2.26 2.26 0 0 0 1.148.853c.169.05.35.088.543.1.048 0 .109.013.157.013h1.618c.121 0 .218-.1.218-.213V5.144a.204.204 0 0 0-.206-.226ZM56.951 4.93H51.867c-.181 0-.338.138-.338.314 0 .314.084.627.217.89a2.16 2.16 0 0 0 1.92 1.13h2.995c2.114 0 3.116 1.015 3.116 2.483 0 1.467-.99 2.508-3.116 2.508h-4.806c-.17 0-.314.126-.326.276v7.325c0 .113.096.213.217.213H51.891c1.208-.012 2.186-.915 2.222-2.044v-3.6h2.476s.881.038 1.775-.125c2.536-.452 4.033-2.082 4.033-4.566.013-2.86-1.956-4.804-5.446-4.804Z"
    fill="currentColor"
  />
  <path
    fill-rule="evenodd"
    clip-rule="evenodd"
    d="M5.655 19.063 4.23 20.77a11.719 11.719 0 0 1-2.346-3.334l1.613-1.958a9.48 9.48 0 0 1-.482-3c0-4.562 3.225-8.354 7.519-9.27l-.712-2.084a11.91 11.91 0 0 1 2.743-.313c.44 0 .88.021 1.32.063l.838 2.375c4.23.98 7.393 4.75 7.393 9.25 0 1.02-.168 2-.46 2.896l2.198.416a11.816 11.816 0 0 1-1.822 3.626l-2.492-.48A9.495 9.495 0 0 1 12.566 22a9.62 9.62 0 0 1-6.911-2.938ZM12.566 25c6.933 0 12.567-5.604 12.567-12.5S19.499 0 12.566 0C5.634 0 0 5.604 0 12.5S5.634 25 12.566 25ZM20.4 11.02l-2.178.75-.105-.457a5.68 5.68 0 0 0-5.57-4.48c-.629 0-1.236.104-1.802.292l-.21.063-1.968-1.605.587-.27a8.007 8.007 0 0 1 3.392-.75c3.77 0 6.933 2.604 7.77 6.083l.084.375Zm-2.24 2.543 2.387-.834-.063.646c-.44 3.98-3.832 7.083-7.938 7.083-.795 0-1.55-.104-2.261-.333l-.357-.104.44-2.25.44.146a5.95 5.95 0 0 0 1.738.27c2.702 0 4.985-1.875 5.55-4.395l.063-.23Zm-9.342 3.25-.481 2.479-.524-.396A7.906 7.906 0 0 1 4.566 12.5c0-2.188.9-4.188 2.346-5.625l.272-.27 1.78 1.457-.335.313a5.664 5.664 0 0 0-1.76 4.104c0 1.646.692 3.104 1.802 4.146l.146.188Z"
    fill="currentColor"
  />
</svg>
