<svg xmlns="http://www.w3.org/2000/svg" width="105" height="30" viewBox="0 0 105 30">
  <path fill="#2D52DA" fill-rule="evenodd" d="M1,0 L104,0 C104.552285,-1.01453063e-16 105,0.44771525 105,1 L105,29 C105,29.5522847 104.552285,30 104,30 L1,30 C0.44771525,30 6.76353751e-17,29.5522847 0,29 L0,1 C-6.76353751e-17,0.44771525 0.44771525,1.01453063e-16 1,0 Z M96.1630374,11.0796894 L96.1630374,8.86578 L86.0942249,8.86578 C85.9336626,8.86578 85.784495,8.89347952 85.6467222,8.95093036 C85.5089493,9.0073553 85.3908583,9.08737613 85.2893415,9.18894102 C85.1898964,9.29153181 85.1111691,9.41053714 85.0531595,9.5469829 C84.9961857,9.68342866 84.9671809,9.82808169 84.9671809,9.98094198 L84.9671809,17.9696874 C84.9671809,18.5421441 85.0718054,19.0263726 85.2820903,19.4213472 C85.4903034,19.8163218 85.7513467,20.1364051 86.0631484,20.382623 C86.3759859,20.6308927 86.7157566,20.8073489 87.0824602,20.9150692 C87.4491639,21.0227896 87.7878986,21.0771627 88.0976286,21.0771627 L96.1630374,21.0771627 L96.1630374,18.8632533 L88.1142027,18.8632533 C87.8169034,18.8632533 87.5900444,18.7873361 87.4356974,18.632424 C87.2803145,18.4805896 87.2036589,18.2579676 87.2036589,17.9696874 L87.2036589,16.0871463 L95.157192,16.0871463 L95.157192,13.8557964 L87.2036589,13.8557964 L87.2036589,11.0796894 L96.1630374,11.0796894 Z M77.4918128,13.9750069 L77.4918128,15.9673202 C77.4918128,16.404357 77.4213725,16.8013834 77.2815279,17.1563476 C77.1406474,17.5102858 76.9417573,17.8139546 76.6838217,18.066328 C76.4258861,18.3187013 76.117192,18.5156756 75.7587754,18.6551991 C75.4003589,18.7936967 75.0036145,18.8634585 74.5685424,18.8634585 L69.6408324,18.8634585 L69.6408324,11.0798946 L74.5685424,11.0798946 C75.0036145,11.0798946 75.4003589,11.1486304 75.7587754,11.2881539 C76.117192,11.4276774 76.4258861,11.6236258 76.6838217,11.8759992 C76.9417573,12.1283726 77.1406474,12.4330672 77.2815279,12.792135 C77.4213725,13.1481251 77.4918128,13.5430997 77.4918128,13.9750069 Z M79.7272549,15.9673202 L79.7272549,13.9750069 C79.7272549,13.2363532 79.5967333,12.5541244 79.33569,11.9272946 C79.0756826,11.3004648 78.7162301,10.7598113 78.2573326,10.3094377 C77.7984351,9.85701229 77.2545949,9.50409995 76.6237403,9.24967477 C75.9928857,8.99319777 75.308165,8.86598518 74.5685424,8.86598518 L68.5324343,8.86598518 C68.371872,8.86598518 68.2227044,8.8936847 68.0849316,8.95113555 C67.9471587,9.00756049 67.8280318,9.0865554 67.7275509,9.1891462 C67.6281058,9.291737 67.5483426,9.41074232 67.4913688,9.54718808 C67.4343951,9.68260794 67.4053903,9.82828687 67.4053903,9.98012125 L67.4053903,19.96118 C67.4053903,20.1201957 67.4343951,20.2679265 67.4913688,20.4043722 C67.5483426,20.5397921 67.6281058,20.6587974 67.7275509,20.7572846 C67.8280318,20.8567977 67.9471587,20.9347667 68.0849316,20.9922175 C68.2227044,21.0496684 68.371872,21.0773679 68.5324343,21.0773679 L74.5685424,21.0773679 C75.308165,21.0773679 75.9928857,20.9491294 76.6237403,20.6947042 C77.2545949,20.4382272 77.7984351,20.0853149 78.2573326,19.6339153 C78.7162301,19.1825158 79.0756826,18.6449401 79.33569,18.0191362 C79.5967333,17.3953841 79.7272549,16.7111035 79.7272549,15.9673202 Z M59.4742323,21.0772653 L61.7096744,21.0772653 L61.7096744,8.86588259 L59.4742323,8.86588259 L59.4742323,21.0772653 Z M44.0267888,14.8697013 L44.0267888,11.0799972 L51.4043692,11.0799972 C51.4509841,11.0799972 51.5007066,11.0830749 51.5545727,11.0882045 C51.6094747,11.093334 51.661269,11.1128263 51.7099556,11.1436035 C51.7586422,11.1743807 51.7980059,11.2225984 51.8301184,11.2882565 C51.861195,11.3528887 51.8777691,11.4482982 51.8777691,11.5734589 L51.8777691,12.9697197 C51.8777691,13.2600517 51.8311543,13.5165287 51.7399963,13.7401766 C51.6478024,13.9648504 51.5172808,14.1566952 51.3484314,14.315711 C51.1795819,14.4747267 50.9786201,14.6009134 50.7465816,14.694271 C50.5145431,14.7886545 50.2576434,14.8471313 49.9769182,14.8697013 L44.0267888,14.8697013 Z M49.9769182,17.0836107 C50.2524639,17.0836107 50.5456197,17.0518076 50.8584573,16.9892272 C51.170259,16.9276727 51.4799889,16.8261078 51.7876471,16.6865843 C52.0942693,16.5480867 52.3874251,16.3706047 52.6681502,16.155164 C52.9488753,15.9397233 53.197488,15.6791427 53.4119164,15.3754739 C53.6273807,15.0718051 53.7983019,14.7209446 53.9236441,14.3249441 C54.0500222,13.9268918 54.1132112,13.4754923 54.1132112,12.9697197 L54.1132112,11.5570444 C54.1132112,11.2841529 54.0655605,10.9917691 53.9712949,10.6798931 C53.8759933,10.3669912 53.7216463,10.0756333 53.5072179,9.80581949 C53.2917536,9.53703159 53.0120644,9.31235775 52.6681502,9.13384976 C52.324236,8.95431586 51.9036663,8.86506187 51.4043692,8.86506187 L42.9173548,8.86506187 C42.7567925,8.86506187 42.6076249,8.89378729 42.4708879,8.95021223 C42.3331151,9.00766308 42.2139882,9.08665799 42.1135072,9.18924879 C42.0130263,9.29183959 41.9342989,9.41084491 41.8773252,9.54729067 C41.8203515,9.68271053 41.7913467,9.82838946 41.7913467,9.98022384 L41.7913467,21.0774705 L44.0267888,21.0774705 L44.0267888,17.0836107 L46.5294895,17.0836107 L51.1899408,21.0774705 L54.6456567,21.0774705 L49.9769182,17.0836107 Z M37.0491639,11.0796894 L37.0491639,8.86578 L24.9510507,8.86578 L24.9510507,11.0796894 L29.8860118,11.0796894 L29.8860118,21.0771627 L32.1224898,21.0771627 L32.1224898,11.0796894 L37.0491639,11.0796894 Z M21.0718646,17.4836122 C21.0718646,17.0465754 21.0169626,16.6546786 20.9081946,16.3079217 C20.7994266,15.9621907 20.6523307,15.6554442 20.4658713,15.3887081 C20.2794118,15.121972 20.0660192,14.8942205 19.8246578,14.7034016 C19.5843322,14.5125827 19.3305401,14.3556188 19.0643174,14.230458 C18.7970588,14.1052972 18.5298002,14.0129655 18.2604698,13.9544888 C17.9901036,13.8939602 17.7352756,13.862157 17.4949501,13.8560016 L17.47734,13.8560016 L12.3352016,13.8560016 C11.9115242,13.8560016 11.5800407,13.7328926 11.3428228,13.4856488 C11.104569,13.238405 10.9854421,12.9019072 10.9854421,12.4761554 C10.9854421,12.056559 11.104569,11.7180094 11.3428228,11.4635842 C11.5800407,11.2071072 11.9115242,11.0798946 12.3352016,11.0798946 L19.9458565,11.0798946 L19.9458565,8.86598518 L12.3352016,8.86598518 C11.9747133,8.86598518 11.5841842,8.92959148 11.1656863,9.05680407 C10.7482242,9.18504257 10.3597669,9.39227598 10.0013504,9.67953021 C9.64293378,9.96575854 9.34459859,10.3371372 9.10738069,10.7936663 C8.8691269,11.2512212 8.75,11.8123929 8.75,12.4761554 C8.75,13.1409437 8.8691269,13.7021154 9.10738069,14.1627481 C9.34459859,14.6223549 9.64293378,14.9937336 10.0013504,15.278936 C10.3597669,15.5620866 10.7482242,15.7672682 11.1656863,15.8955067 C11.5841842,16.0227193 11.9747133,16.0873515 12.3352016,16.0873515 L17.47734,16.0873515 C17.6834813,16.0873515 17.8720126,16.1212064 18.040862,16.1889163 C18.2097114,16.2576522 18.3526637,16.3530616 18.4707547,16.4792483 C18.5888457,16.6044091 18.6779319,16.7511139 18.741121,16.9214146 C18.8053459,17.0917154 18.8364225,17.2794565 18.8364225,17.4836122 C18.8364225,17.9032086 18.7172956,18.2386805 18.4800777,18.4879761 C18.2418239,18.7382977 17.9072327,18.8634585 17.47734,18.8634585 L8.85358861,18.8634585 L8.85358861,21.0773679 L17.47734,21.0773679 C17.7187014,21.0773679 17.9745653,21.0496684 18.2470033,20.9922175 C18.5194414,20.9347667 18.7877358,20.8465386 19.0508509,20.7285592 C19.3150018,20.6085279 19.5698298,20.4556676 19.8163707,20.2679265 C20.0629116,20.0812112 20.27734,19.8544856 20.4617277,19.5867236 C20.6450795,19.3199875 20.7921754,19.0122151 20.9040511,18.6623805 C21.0159267,18.3145977 21.0718646,17.920649 21.0718646,17.4836122 Z"/>
</svg>
